<?xml version="1.0" encoding="UTF-8"?>
<!-- Generated by Pixelmator Pro 2.3.8 -->
<svg width="720" height="366" viewBox="0 0 720 366" xmlns="http://www.w3.org/2000/svg" xmlns:xlink="http://www.w3.org/1999/xlink">
    <g id="Farmerscent-Logo-C4---Weiss">
        <g id="Gruppe">
            <path id="Pfad" fill="#ffffff" stroke="none" d="M 482.642426 223.200333 L 637.695129 223.044144 C 639.484131 223.042343 640.933167 221.590454 640.931335 219.801437 C 640.929565 218.012054 639.4776 216.563446 637.688599 216.565262 L 482.635895 216.721451 C 480.845398 216.723251 479.397919 218.174774 479.399719 219.964157 C 479.401947 221.753174 480.852295 223.202133 482.642426 223.200333"/>
            <path id="path1" fill="#ffffff" stroke="none" d="M 445.000458 223.238251 L 482.642426 223.200333 C 484.431427 223.198532 485.880463 221.746643 485.878662 219.957626 C 485.876831 218.168243 484.424927 216.71965 482.635895 216.721451 L 444.993927 216.759369 C 443.20343 216.761169 441.755951 218.212692 441.757751 220.002075 C 441.759552 221.791092 443.209961 223.240067 445.000458 223.238251"/>
            <path id="path2" fill="#ffffff" stroke="none" d="M 102.79982 223.582977 L 420.802399 223.262634 C 422.591431 223.260834 424.040405 221.808945 424.038574 220.019928 C 424.036774 218.230545 422.5849 216.781952 420.795868 216.783752 L 102.793297 217.104095 C 101.002762 217.105896 99.555313 218.557419 99.557114 220.346802 C 99.559303 222.135818 101.009293 223.584778 102.79982 223.582977"/>
            <path id="path3" fill="#ffffff" stroke="none" d="M 250.542526 250.485413 L 558.520325 250.175171 C 560.309326 250.17337 561.758362 248.721481 561.756531 246.932465 C 561.754761 245.143082 560.302795 243.694489 558.513794 243.696289 L 250.535995 244.006531 C 248.745453 244.008331 247.298004 245.459854 247.29982 247.249237 C 247.30162 249.038269 248.751984 250.487228 250.542526 250.485413"/>
            <path id="path4" fill="#ffffff" stroke="none" d="M 82.23542 250.654968 L 192.289597 250.544098 C 194.078613 250.542297 195.527603 249.090424 195.525787 247.301392 C 195.523987 245.512009 194.072083 244.063416 192.283066 244.065216 L 82.228897 244.176086 C 80.438362 244.177887 78.990913 245.629395 78.992714 247.418793 C 78.994514 249.207809 80.444893 250.656769 82.23542 250.654968"/>
            <path id="path5" fill="#ffffff" stroke="none" d="M 573.219116 277.21167 L 625.708496 277.158813 C 627.497498 277.157013 628.946472 275.705078 628.944702 273.916046 C 628.942871 272.126678 627.490967 270.67807 625.701965 270.679871 L 573.212585 270.732758 C 571.422058 270.734558 569.974609 272.186066 569.97644 273.975464 C 569.978577 275.764465 571.428955 277.213501 573.219116 277.21167"/>
            <path id="path6" fill="#ffffff" stroke="none" d="M 386.802094 277.399475 L 543.64679 277.241455 C 545.435852 277.239685 546.884827 275.78775 546.882996 273.998718 C 546.881165 272.209351 545.429321 270.760742 543.64032 270.762543 L 386.795563 270.920532 C 385.005005 270.922363 383.557526 272.373871 383.559326 274.163269 C 383.561127 275.952271 385.011536 277.401276 386.802094 277.399475"/>
            <path id="path7" fill="#ffffff" stroke="none" d="M 255.051941 277.532196 L 365.291107 277.421143 C 367.080139 277.419342 368.529114 275.967407 368.527313 274.178406 C 368.525513 272.389008 367.073608 270.94043 365.284576 270.9422 L 255.04541 271.053284 C 253.254898 271.055054 251.807434 272.506592 251.809235 274.295959 C 251.811432 276.084991 253.261795 277.533997 255.051941 277.532196"/>
            <path id="path8" fill="#ffffff" stroke="none" d="M 123.969551 277.664246 L 229.955795 277.557495 C 231.744812 277.555664 233.193787 276.10376 233.191986 274.314728 C 233.19017 272.52533 231.738297 271.076752 229.94928 271.078552 L 123.963028 271.185303 C 122.172501 271.187134 120.725044 272.638641 120.726852 274.42804 C 120.729034 276.217041 122.179024 277.666046 123.969551 277.664246"/>
            <path id="path9" fill="#ffffff" stroke="none" d="M 432.300598 35.759796 C 432.303925 39.051331 429.638275 41.722351 426.346741 41.725677 C 423.055206 41.729004 420.384186 39.063354 420.38089 35.77182 C 420.377563 32.480286 423.043213 29.809296 426.334747 29.806 C 429.626282 29.802673 432.297302 32.468262 432.300598 35.759796 Z"/>
            <path id="path10" fill="#ffffff" stroke="none" d="M 537.561523 180.867249 C 528.350769 186.442169 513.563904 189.883774 498.539795 189.875839 C 485.957672 189.897232 473.199127 187.538849 463.288086 182.524124 C 461.689697 181.718445 459.741699 182.360107 458.936707 183.957397 C 458.131775 185.554657 458.772705 187.501938 460.371124 188.307983 C 471.533844 193.929016 485.168579 196.358765 498.546692 196.353973 C 514.540344 196.314819 530.149658 192.851929 540.899963 186.418167 C 542.43158 185.496613 542.927795 183.506943 542.005859 181.974594 C 541.085388 180.441864 539.095032 179.946014 537.563416 180.867615 L 537.561523 180.867249 Z"/>
            <path id="path11" fill="#ffffff" stroke="none" d="M 463.123169 154.009705 C 463.537903 157.48822 463.399536 159.822128 464.205902 162.667343 C 464.932831 165.11467 465.311646 167.48288 465.313873 169.711807 C 465.299042 173.733276 464.162018 177.270462 461.441803 180.504318 C 456.280579 186.536346 454.549164 193.390762 454.590973 200.357224 C 454.590424 201.295059 454.619751 202.249893 454.679382 203.221329 L 454.679352 203.202438 C 454.785675 205.084396 454.820892 206.993683 454.822876 208.956345 C 454.82605 212.130341 454.742401 215.44252 454.745972 218.983841 L 457.985413 218.980576 L 457.982147 215.741135 C 453.703827 215.745071 450.283966 215.74852 445.570587 215.753632 L 445.573853 218.993073 L 448.340271 220.676422 C 451.064087 216.223984 452.124146 211.722565 452.107025 207.493134 C 452.038269 198.92868 448.163788 191.591141 446.333069 184.761505 C 445.280609 180.976456 443.648438 177.841171 441.210236 175.578339 C 438.787933 173.30484 435.549194 172.121353 432.161072 172.150177 C 429.584412 172.154984 426.905884 172.767166 424.104095 173.877289 C 415.425781 177.311615 406.964142 179.198792 398.71402 179.206741 C 389.148132 179.207291 379.832855 176.735748 370.509369 171.016388 C 368.599243 169.850891 366.670898 168.207932 364.366394 166.496552 L 362.440796 169.101578 L 365.678345 169.098328 C 365.675842 166.638947 365.673523 164.309357 365.670319 161.156906 L 362.43277 161.160172 L 363.354828 164.265137 C 370.936493 162.027374 376.721924 158.211624 380.574127 152.887192 C 384.435852 147.568893 386.292389 140.974625 386.782959 133.411758 C 387.239624 126.658096 389.641449 121.369995 393.445679 116.837402 C 397.25296 112.319595 402.542908 108.61972 408.635895 105.562134 C 426.643707 96.517578 445.769775 90.876648 465.731628 88.654785 C 472.582733 87.892822 479.394531 87.498566 486.162445 87.491333 C 506.04895 87.47287 525.551025 90.786072 544.574646 97.936615 C 546.436951 98.636505 548.319946 99.479706 550.255432 100.352386 C 560.27533 104.868805 567.657593 110.452011 572.504089 116.801147 C 577.347107 123.161652 579.750488 130.27597 579.77301 138.345642 C 579.782288 146.029099 577.549805 154.615128 572.850403 163.949722 C 572.234985 165.170334 571.611206 166.336914 570.940002 167.401031 C 567.596985 172.692032 565.625488 178.261169 565.632813 184.020157 C 565.628723 189.302444 567.329651 194.623169 570.749817 199.751862 L 573.447937 197.958969 L 570.321899 197.106766 C 568.418091 204.089966 566.509766 211.098526 564.58905 218.144547 L 567.715088 218.99675 L 567.711853 215.757309 C 563.436584 215.761246 559.741638 215.764969 554.46991 215.770645 L 554.473206 219.010086 L 557.503113 220.153687 C 558.892639 216.39798 559.559021 213.631866 560.635925 211.932541 C 562.126648 209.485291 562.98938 207.040939 562.988342 204.563431 C 562.99707 202.335922 562.23761 200.231415 561.050964 198.487839 C 559.862854 196.72879 558.294006 195.248169 556.473694 193.833984 C 549.572144 188.502258 542.645691 183.238647 537.53186 177.000946 C 534.234741 173.102417 532.738342 166.486542 530.060242 160.071259 C 529.356445 158.427078 527.45282 157.664063 525.808594 158.368225 C 524.16449 159.071625 523.402222 160.97493 524.106384 162.61911 C 526.541443 168.161926 527.89624 175.364639 532.526794 181.114044 C 538.32428 188.155685 545.659546 193.646255 552.507019 198.956497 C 554.001343 200.108795 555.060547 201.182526 555.673584 202.101547 C 556.286621 203.036118 556.499146 203.733871 556.511353 204.569534 C 556.513794 205.494888 556.187866 206.775421 555.101257 208.564011 C 553.278992 211.627136 552.692261 214.623886 551.44104 217.865753 C 551.065613 218.859192 551.204468 219.981094 551.809509 220.853653 C 552.413025 221.726547 553.414978 222.249863 554.476074 222.248795 C 559.749268 222.243484 563.442749 222.239761 567.718018 222.235458 C 569.174866 222.233994 570.454773 221.253998 570.839233 219.848221 C 572.760071 212.801453 574.668701 205.793259 576.572144 198.810425 C 576.817871 197.906021 576.66217 196.945633 576.14386 196.165329 C 573.309814 191.883118 572.122864 187.923035 572.109436 184.013229 C 572.106689 179.7603 573.5448 175.420441 576.420654 170.855515 C 577.259155 169.521912 577.974304 168.17366 578.635803 166.866272 C 583.677612 156.849701 586.257141 147.289886 586.249634 138.339127 C 586.254517 128.952911 583.327515 120.275604 577.653015 112.868393 C 571.981506 105.449829 563.660461 99.28949 552.917725 94.446594 C 550.976135 93.571686 548.969788 92.668396 546.854248 91.872681 C 527.080566 84.436951 506.76535 80.990936 486.156342 81.013214 C 479.139862 81.019867 472.090881 81.428375 465.015381 82.215942 C 444.307251 84.519135 424.41571 90.384827 405.728424 99.773193 C 399.126892 103.092682 393.087189 107.22348 388.494751 112.659439 C 383.900757 118.0811 380.834198 124.871002 380.318787 132.989258 C 379.873169 139.778046 378.255951 145.058212 375.333801 149.079559 C 372.402161 153.094101 368.096619 156.082138 361.509613 158.054428 C 360.130707 158.464371 359.192657 159.725113 359.194092 161.163071 C 359.19577 164.316238 359.19809 166.644745 359.202118 169.104477 C 359.203125 170.132721 359.686432 171.093887 360.514404 171.705917 C 362.578491 173.223846 364.620453 174.994186 367.118103 176.535553 C 377.376953 182.851669 388.014862 185.704376 398.721344 185.684479 C 407.962982 185.674805 417.230927 183.56398 426.491241 179.900177 C 428.729919 179.009277 430.636963 178.627548 432.168335 178.628265 C 434.196136 178.651581 435.53775 179.187424 436.812317 180.334686 C 438.072479 181.491394 439.25592 183.477081 440.090851 186.491379 C 442.271942 194.171112 445.684082 201.058533 445.630402 207.500031 C 445.621155 210.699768 444.913818 213.819992 442.806 217.310104 C 442.197906 218.307556 442.177246 219.565109 442.750671 220.582535 C 443.322571 221.600372 444.408173 222.233688 445.577118 222.232513 C 450.290497 222.227768 453.708466 222.224319 457.988678 222.220016 C 458.853851 222.219147 459.666473 221.881256 460.277954 221.268524 C 460.889465 220.655838 461.223816 219.842499 461.222961 218.977676 C 461.219482 215.544189 461.303162 212.240707 461.299866 208.95018 C 461.297821 206.915619 461.262451 204.885681 461.146515 202.836868 L 461.146515 202.817978 C 461.093475 201.986145 461.070313 201.164856 461.067993 200.351486 C 461.09671 194.324249 462.345978 189.502594 466.384094 184.695541 C 470.132874 180.295441 471.815155 175.020889 471.790863 169.70607 C 471.787903 166.750717 471.291595 163.772049 470.415497 160.823639 C 469.974548 159.468597 469.976776 157.188538 469.561615 153.286316 C 469.360474 151.508865 467.75705 150.229904 465.98111 150.430313 C 464.203613 150.630356 462.92392 152.233398 463.125061 154.010864 L 463.123169 154.009705 Z"/>
            <g id="g1">
                <path id="path12" fill="#ffffff" stroke="none" d="M 615.409424 129.135788 C 614.013062 129.12204 612.641541 130.498215 612.491394 132.05661 C 612.42627 132.73082 612.40802 133.416336 612.266846 134.074738 C 611.518311 137.569885 608.023132 140.211044 604.770569 139.626389 C 605.032166 139.034058 605.279419 138.473175 605.527039 137.912674 C 608.052917 132.196167 606.039001 125.301651 600.833435 121.875992 C 599.606934 121.068787 598.363037 121.070786 597.18927 121.970078 C 591.776489 126.116501 590.549133 133.900665 593.936951 138.854599 C 594.165833 139.189178 594.265747 139.612 594.437561 140.021896 C 590.782654 140.739853 586.809265 137.706024 586.250916 133.955704 C 586.017395 132.38591 585.731689 130.822296 585.411621 129.267792 C 585.313171 128.788956 585.2052 128.313126 585.09314 127.839203 C 585.065613 127.910339 585.038025 127.981125 585.010498 128.051529 C 584.051697 130.498291 583.063904 132.69191 582.883057 135.34819 C 582.584473 139.73616 582.66156 145.324814 584.892456 149.462753 C 585.20636 148.260544 585.476807 147.042145 585.695374 145.80484 C 585.817261 145.115067 585.942139 144.426071 586.073425 143.693527 C 590.547607 145.879807 593.897888 146.664444 599.324036 144.474976 C 599.628845 144.352066 600.078308 144.408417 600.400818 144.534439 C 605.182251 146.406387 611.729553 145.252029 615.450623 140.40213 C 617.379333 137.888214 618.2005 135.100006 618.13385 132.016891 C 618.099304 130.402283 616.809509 129.149887 615.409424 129.135788 Z M 599.440918 136.880676 C 597.388 134.800934 597.22998 130.811508 599.09967 128.278717 C 601.454895 130.044174 601.644348 134.819748 599.440918 136.880676 Z"/>
            </g>
            <path id="path13" fill="#ffffff" stroke="none" d="M 401.672882 146.998383 C 401.676208 150.290054 399.010651 152.961716 395.717499 152.965042 C 392.42627 152.968353 389.754944 150.302475 389.751648 147.010391 C 389.748322 143.718399 392.413818 141.047516 395.705505 141.044205 C 398.998657 141.040878 401.669586 143.70639 401.672882 146.998383 Z"/>
            <path id="path14" fill="#ffffff" stroke="none" d="M 418.10318 126.366364 L 421.54422 139.846527 L 424.683014 139.045517 L 423.895233 135.902542 L 423.838135 135.916275 C 423.436462 136.010895 421.211334 136.478439 418.500366 136.4785 C 416.314545 136.485596 413.837433 136.173737 411.755066 135.283768 C 409.663239 134.374191 407.972778 133.040451 406.771484 130.610657 C 405.986755 129.002151 404.048767 128.332932 402.440948 129.116562 C 400.833191 129.899368 400.162903 131.837753 400.947601 133.446259 C 402.848053 137.392746 406.009094 139.906097 409.226044 141.248459 C 412.455505 142.610153 415.749054 142.954895 418.507263 142.956635 C 422.41861 142.948914 425.304749 142.225311 425.468903 142.18811 C 426.306976 141.978027 427.021454 141.447662 427.464874 140.704269 C 427.907135 139.961166 428.032593 139.082596 427.819885 138.244507 L 424.378845 124.764328 C 423.935608 123.031723 422.171265 121.98558 420.439819 122.428452 C 418.706848 122.870926 417.661499 124.634491 418.104309 126.367096 L 418.10318 126.366364 Z"/>
            <path id="path15" fill="#ffffff" stroke="none" d="M 471.206482 49.986206 C 469.583984 48.543488 468.345703 47.362915 466.924011 46.187408 C 458.689362 39.393738 450.316132 32.92627 442.529999 25.970245 C 437.071808 21.101624 431.281128 16.297272 423.509277 13.798096 C 419.8479 12.572266 417.552032 10.379272 416.245331 6.592163 C 415.694824 4.994781 415.043915 4.035248 414.262573 2.399872 C 413.728394 1.303741 412.621918 0.598511 411.402588 0.578552 C 410.182922 0.558624 409.052856 1.226349 408.484589 2.305084 C 406.366302 6.327881 404.936401 9.421173 403.27832 12.091461 C 402.63736 13.130554 402.043335 13.762909 401.646393 14.053131 L 400.91922 14.359528 C 400.650238 14.390778 399.647095 14.118683 398.121124 12.708405 C 396.838593 11.547913 395.581299 9.868347 393.983429 8.093048 C 392.550293 6.516174 391.112762 4.995728 389.2854 3.027313 C 388.476471 2.156128 387.24057 1.796478 386.091217 2.097229 C 384.941437 2.397644 384.039368 3.315979 383.762054 4.471588 C 383.15741 6.98111 383.014191 9.381653 383.016449 11.631836 C 383.020538 14.175903 383.201843 16.5383 383.202179 18.750977 C 383.203735 20.273285 383.110596 21.713226 382.875214 23.12381 C 381.02829 23.125671 379.273346 23.127441 377.527039 23.129578 C 300.523315 23.20639 223.524536 23.285461 146.5242 23.353973 C 142.657135 23.357849 138.778656 23.294067 134.88768 23.207581 L 134.88768 23.208313 L 134.569901 23.203735 C 132.366638 23.198364 130.219177 23.775574 128.469635 25.020416 C 126.715141 26.256195 125.468948 28.084717 124.764336 30.134338 C 123.840179 32.818268 122.797638 35.891113 122.717461 39.293762 C 122.694633 40.293213 122.68618 41.301056 122.687195 42.303955 C 122.691765 46.842102 122.916168 51.402405 123.397003 55.92572 C 124.98127 70.85672 126.965302 85.684357 128.496857 100.497314 C 128.841873 103.874908 129.022293 107.231812 129.027542 110.562866 C 129.037216 121.668442 127.113853 132.514175 123.102005 143.133926 C 122.313065 145.221832 121.913971 147.496231 121.912849 149.750931 C 121.913452 150.34758 121.944305 150.938431 122.006554 151.518707 C 123.57663 166.632813 125.339607 181.717545 127.078743 196.789459 C 127.946579 204.307861 128.900269 211.796997 129.847458 219.578613 C 130.045059 221.209259 131.424088 222.427948 133.067444 222.4263 L 142.875443 222.416412 C 143.740631 222.415543 144.553284 222.078018 145.164764 221.465286 C 145.776245 220.852554 146.110611 220.039261 146.109741 219.174454 L 146.056335 166.149017 C 146.305527 166.03978 146.536194 165.941925 146.725266 165.870987 L 146.868988 165.824341 C 146.967514 165.998657 147.076294 166.197128 147.203278 166.452744 C 147.80069 167.633987 148.270599 169.194763 148.898849 170.958221 C 154.182327 185.633102 159.452957 200.319778 164.753464 214.998062 C 165.527359 217.140793 166.408951 219.136215 167.125732 220.920364 C 167.618774 222.144791 168.813904 222.95018 170.134567 222.948837 L 183.486954 222.935394 C 184.458054 222.934418 185.38446 222.492737 185.997314 221.738556 C 186.610184 220.983948 186.851273 219.987228 186.653976 219.035614 C 186.320221 217.433823 186.121307 216.393311 185.870529 215.289246 C 182.443817 200.280319 178.999725 185.284271 175.604431 170.28212 C 175.164536 168.472763 174.740616 167.144165 174.765488 166.284225 C 174.776535 165.975906 174.80011 165.725082 174.878906 165.461319 C 175.091095 165.417969 175.241257 165.39209 175.310852 165.394699 C 178.891296 166.650848 182.519394 167.15033 186.059601 167.145645 C 188.805359 167.142883 191.503525 166.846924 194.126999 166.386902 C 196.66008 165.937607 199.213547 165.435654 201.755951 164.873566 C 199.753189 163.381287 198.228149 161.429214 197.158371 159.238403 C 195.789536 159.505356 194.407471 159.762085 193.00531 160.006027 C 190.663269 160.417313 188.335403 160.665207 186.05307 160.667496 C 183.051208 160.669373 180.132523 160.252762 177.290771 159.232697 C 176.5755 158.978821 175.916061 158.912155 175.356171 158.912354 C 173.735153 158.953323 172.618805 159.360748 172.45723 159.330978 C 171.547882 159.423843 170.713058 159.900986 170.173187 160.638474 C 168.822556 162.441742 168.26326 164.527893 168.288864 166.291534 C 168.316605 168.670288 169.025452 170.451797 169.289276 171.720383 C 172.665573 186.639709 176.089142 201.550674 179.492676 216.461639 C 177.094193 216.46405 174.730164 216.466431 172.298782 216.468872 C 171.787201 215.235001 171.282059 214.005219 170.845779 212.797363 C 165.548325 198.127747 160.280716 183.443375 154.994202 168.761658 C 154.445297 167.261444 153.937286 165.453278 152.997543 163.554733 C 152.496826 162.583374 152.048401 161.698608 151.186829 160.789627 C 150.369888 159.862457 148.765106 159.114624 147.401749 159.175385 C 145.151276 159.264694 143.704727 160.100311 141.374329 161.199753 C 140.272476 161.747131 139.576019 162.874817 139.577255 164.104309 C 139.592834 181.059692 139.610229 198.340775 139.629105 215.942642 L 135.928879 215.946365 C 135.095825 209.167175 134.269028 202.597214 133.513382 196.047928 C 131.774246 180.970337 130.014313 165.909805 128.449219 150.844086 L 128.389465 149.74556 C 128.384979 148.293991 128.671265 146.701416 129.158386 145.431335 C 133.452087 134.079254 135.517258 122.417786 135.503799 110.557816 C 135.500214 106.997192 135.308212 103.421967 134.94104 99.835266 C 133.393463 84.890625 131.409424 70.056915 129.837769 55.243195 C 129.382889 50.963104 129.167801 46.627502 129.163452 42.298584 C 129.162476 41.336914 129.170975 40.381683 129.193848 39.43399 C 129.222015 37.350586 129.973831 34.836761 130.882202 32.265594 C 131.251144 31.225281 131.701538 30.677429 132.213776 30.308441 C 132.73056 29.948151 133.421463 29.691345 134.57605 29.682251 L 134.699371 29.683594 L 134.743637 29.684662 C 138.659973 29.771912 142.58876 29.836456 146.528839 29.832855 C 223.529175 29.764343 300.529846 29.685303 377.531677 29.608459 C 380.072052 29.60553 382.610474 29.602966 385.452667 29.600098 C 386.869843 29.598694 388.118469 28.677368 388.540802 27.32373 C 389.480499 24.306946 389.681519 21.417633 389.678802 18.744843 C 389.675568 16.653168 389.568817 14.707306 389.524933 12.836578 C 390.738434 14.209778 392.011963 15.885529 393.746979 17.487366 C 395.860657 19.405975 398.148956 20.809448 400.924591 20.837616 C 402.596741 20.84845 404.237579 20.219971 405.51944 19.246063 C 406.818695 18.270966 407.850189 17.003326 408.783508 15.504303 C 409.650665 14.100311 410.416473 12.683136 411.181793 11.213013 C 413.323151 15.461487 416.998474 18.557678 421.530121 19.966888 C 427.833252 21.980621 432.870361 26.019318 438.214996 30.801025 C 446.23172 37.961914 454.674957 44.477325 462.798645 51.183746 C 463.447601 51.718384 464.11557 52.31427 464.859955 52.987305 C 462.897827 56.112579 460.951904 59.211761 458.895294 62.485809 C 455.07132 61.672882 451.598907 60.997314 448.355896 60.072266 C 445.716827 59.323578 443.032135 58.776581 440.243652 58.777496 C 436.687958 58.762939 432.969055 59.756317 429.524689 62.166565 C 427.53009 63.534302 425.401489 64.016174 422.842621 64.029694 C 420.800537 64.034027 418.5466 63.690125 416.211243 63.24231 C 414.529724 62.921295 412.786316 62.39682 411.01709 61.789917 C 409.517395 61.27655 408.018982 60.996979 406.541718 60.998444 C 404.485229 60.992218 402.485321 61.57489 400.800262 62.640045 C 399.107269 63.701752 397.729828 65.186493 396.603851 66.923309 C 394.765442 69.752258 393.114075 72.664246 391.551178 75.567413 C 382.198761 92.946869 372.933716 110.357986 363.555939 127.696213 C 360.516968 133.310669 357.340973 138.086258 351.729492 141.429718 C 350.760468 142.005692 350.160767 143.047791 350.147522 144.174057 C 349.863098 167.515915 349.576935 191.008743 349.288757 214.783768 C 345.565491 201.291412 341.863861 187.876953 338.230591 174.713211 C 337.878204 173.440933 336.779419 172.501953 335.468079 172.355728 C 333.897156 172.183304 332.707611 172.037323 331.526154 172.033997 C 331.380127 172.034882 331.223541 172.055496 331.074097 172.061646 C 331.073761 172.103668 331.065094 172.144501 331.064789 172.186905 C 331.17514 173.973541 330.994629 175.792252 330.440704 177.579575 C 328.729126 183.106476 325.970001 188.229263 323.629791 193.499557 C 322.939819 195.053192 321.749176 196.449219 320.335876 197.6427 C 319.836853 200.993103 319.514191 204.397461 319.516205 207.88623 C 319.517151 208.845993 319.537048 209.823883 319.593292 210.820679 L 319.591766 210.801743 C 319.63501 211.653671 319.644196 212.538528 319.648132 213.447571 C 318.821777 209.176559 318.015564 204.996307 317.261932 200.832275 C 315.965454 202.70018 314.238251 204.347549 312.041229 205.637497 C 311.898315 205.721268 311.744781 205.786484 311.599213 205.865692 C 312.518127 210.762726 313.489258 215.67334 314.45224 220.732605 C 314.775146 222.43277 316.367462 223.572876 318.081696 223.334702 C 320.213531 223.037521 321.594177 222.845444 323.303497 222.607285 C 324.910339 222.383209 326.096832 221.017853 326.095215 219.396011 C 326.093262 217.451141 326.134155 215.606476 326.132294 213.760696 C 326.131195 212.680267 326.117218 211.591125 326.062408 210.478195 L 326.060852 210.459305 C 326.014221 209.608536 325.994446 208.74942 325.993591 207.8797 C 325.97934 198.632324 328.347473 189.548691 331.079346 180.263 C 331.306671 179.480072 331.491058 178.885941 331.631409 178.515427 C 331.865601 178.517456 332.184143 178.536804 332.575378 178.570084 C 336.379883 192.354446 340.252777 206.390305 344.148438 220.506332 C 344.535736 221.911346 345.816132 222.884964 347.274506 222.883484 L 352.473602 222.87825 C 354.241791 222.876465 355.685883 221.446899 355.707916 219.678314 C 356.009003 194.833771 356.307373 170.322525 356.604401 145.964874 C 362.731445 141.804108 366.332214 136.194351 369.255585 130.777847 C 378.645874 113.414612 387.914276 95.998962 397.257233 78.638092 C 398.772949 75.821198 400.338989 73.065155 402.038391 70.451996 C 402.777222 69.313293 403.527771 68.574493 404.239288 68.131134 C 404.958435 67.690826 405.636902 67.486206 406.549713 67.476593 C 407.203064 67.475952 407.985901 67.599609 408.921051 67.919495 C 410.834045 68.573914 412.858978 69.195343 414.99646 69.605133 C 417.467285 70.075134 420.104523 70.507965 422.850311 70.507416 C 426.249023 70.514984 429.919373 69.780396 433.213287 67.492493 C 435.647522 65.827393 437.794617 65.275909 440.251343 65.25528 C 442.165161 65.251465 444.270874 65.643127 446.58374 66.303253 C 450.898041 67.527985 455.164612 68.269775 459.727264 69.291107 C 461.062622 69.589752 462.447418 69.011841 463.177124 67.852722 C 466.21875 63.009979 468.933289 58.685059 471.796265 54.127716 C 472.637787 52.787262 472.389008 51.039001 471.206482 49.986206 Z"/>
            <path id="path16" fill="#ffffff" stroke="none" d="M 134.772293 23.207672 C 125.166824 23.350494 115.620224 25.218719 108.13588 29.831818 C 104.40242 32.141357 101.192886 35.180511 98.944702 39.021454 C 96.690063 42.857086 95.441742 47.459747 95.45343 52.675812 C 95.453796 54.541656 95.61087 56.496948 95.940163 58.539886 C 97.250221 66.775818 98.269104 79.646301 98.280396 92.35675 C 98.295975 102.937622 97.594597 113.46814 95.897209 121.052994 C 95.064209 124.83728 93.947479 127.87439 92.786743 129.669098 C 92.213379 130.571152 91.652542 131.142975 91.209854 131.442657 L 90.039764 131.833878 L 89.835846 131.825363 C 88.051605 131.687973 86.493561 133.023041 86.357666 134.807297 C 86.220238 136.591187 87.555344 138.148056 89.339577 138.285492 L 90.046669 138.311981 C 91.800888 138.320099 93.503441 137.736877 94.870819 136.78714 C 97.279709 135.105011 98.809692 132.586182 100.051346 129.623917 C 101.883156 125.16069 103.010063 119.460007 103.743553 113.031403 C 104.46949 106.610443 104.764206 99.485443 104.757019 92.350586 C 104.742348 79.290283 103.719879 66.239288 102.338211 57.515411 C 102.058037 55.787964 101.933083 54.179169 101.930054 52.669708 C 101.932243 48.463257 102.893555 45.10675 104.532578 42.297241 C 106.98925 38.102356 111.127075 35.004761 116.472725 32.900208 C 121.800964 30.802002 128.256119 29.771057 134.859406 29.686127 C 136.6465 29.661957 138.078049 28.193115 138.054306 26.40448 C 138.030182 24.615479 136.561295 23.184265 134.773804 23.208435 L 134.772293 23.207672 Z"/>
            <path id="path17" fill="#ffffff" stroke="none" d="M 283.213837 167.778992 L 283.212341 167.778992 L 283.212463 167.903503 C 283.254669 170.740768 281.749084 176.854218 279.938629 182.205688 C 279.0383 184.905838 278.072815 187.477768 277.227081 189.507507 C 276.41156 191.501617 275.579376 193.108368 275.413513 193.303009 C 269.01358 202.241669 259.425934 205.77449 248.60257 205.826263 C 246.548004 205.828339 244.459991 205.696518 242.362396 205.445526 C 234.231583 204.466339 227.102341 200.695755 220.812851 195.31572 C 214.53624 189.944046 209.178421 182.9776 204.794678 175.924301 C 203.479843 173.835495 201.911453 171.273239 199.041992 169.412201 L 197.292435 172.137817 L 199.942871 170.276535 L 199.592804 169.777863 L 196.942368 171.639191 L 197.856476 174.746429 C 198.896881 174.437027 199.744354 174.147552 200.440292 173.990204 C 202.068924 173.618622 203.60556 172.822998 204.722534 171.536407 C 205.848999 170.26033 206.426071 168.546005 206.408508 166.893234 L 206.33934 165.811295 L 203.124115 166.201202 L 206.361633 166.180542 L 206.358017 165.588135 L 206.02597 164.178131 C 205.710571 163.539093 205.398209 162.903091 204.900848 161.890854 L 203.667328 160.546875 C 201.022888 158.952667 198.077484 157.176453 194.973831 155.304672 L 193.301483 158.07901 L 194.16832 161.199539 C 195.724243 160.759125 196.955933 160.325134 197.93483 160.161453 C 200.245102 159.746414 202.225128 159.308197 203.993347 159.315094 L 204.35878 159.321198 L 204.403046 159.322632 L 204.580093 159.324387 C 206.707245 159.251495 207.921219 158.483047 208.395935 158.42128 C 209.063095 158.239029 209.644928 157.85556 210.07753 157.314911 C 210.570602 156.695511 211.009659 156.143494 211.396545 155.658112 L 212.005905 154.426895 C 212.177704 153.736328 212.33371 153.116058 212.519455 152.375153 L 212.479904 150.650131 L 212.017944 149.121109 L 211.822998 148.62648 C 211.491684 147.960617 211.0513 147.170364 210.319641 146.415268 C 209.595932 145.657867 208.573471 145.017273 207.459778 144.677582 C 205.077194 143.933517 202.943527 142.419434 200.692078 140.389465 C 197.324722 137.357666 194.558029 133.85994 192.167358 129.939713 C 191.220016 128.383194 190.429214 126.733063 189.753189 124.881546 L 186.711197 125.991135 L 184.659134 128.498337 L 185.688232 129.339813 L 185.86882 129.476959 L 187.12381 130.365082 L 188.99527 127.7211 L 186.723206 130.030685 C 189.566742 132.822403 192.751175 134.918411 195.826065 136.809494 C 199.097443 138.815765 202.471375 140.511337 205.769226 142.14122 C 211.480347 144.961044 217.434341 147.041 223.498352 148.642334 C 227.007339 149.568314 230.578415 150.545258 234.256363 151.340515 C 236.700378 151.864334 239.022568 152.010681 241.123169 152.233658 C 244.119293 152.541977 246.917343 152.623856 249.432388 153.036346 C 251.802109 153.419464 254.116333 153.526077 256.357391 153.523819 C 258.707825 153.521088 260.977173 153.398865 263.167908 153.32518 C 266.938354 153.191193 270.499451 152.153351 273.790863 150.784302 C 278.873962 148.669403 282.857849 145.250366 286.17215 141.418228 C 287.959076 139.351624 289.32019 137.071304 290.494537 134.888809 C 293.733978 128.859116 296.103424 122.579056 298.273529 116.323837 C 299.927948 111.547516 301.557159 106.872253 303.615265 102.465942 C 305.29776 98.869171 307.472656 95.856384 310.347046 93.254944 C 311.50061 92.211121 312.989685 91.535492 314.66449 91.1922 C 316.462585 90.823822 318.203766 90.628387 319.87854 90.626709 C 323.608246 90.63504 326.973083 91.533905 330.21933 93.760376 C 332.389313 95.273346 333.731903 96.775726 334.20871 98.786377 C 334.443878 99.770477 334.607727 100.933624 334.856079 102.239258 C 335.02301 103.105438 335.200897 103.929199 335.377289 104.790833 C 335.525177 105.510559 335.921204 106.167664 336.489502 106.635437 C 337.567413 107.524536 338.615417 108.364044 339.596863 109.202942 C 340.717651 110.203537 341.260925 110.978546 341.626526 112.637009 L 344.803314 112.002441 L 345.996094 108.990662 C 343.388519 107.959778 340.952545 107.899048 338.969055 107.898376 L 337.518616 107.903992 L 336.628113 107.896576 L 336.313324 107.893463 C 334.755463 107.891663 333.169128 108.17926 331.713379 108.890442 C 330.254181 109.595978 328.996277 110.700745 327.998138 112.043564 C 327.048767 113.335358 325.62854 114.788315 324.436401 116.936432 C 322.931976 119.679947 321.800751 122.603088 321.153931 125.705521 C 320.702179 127.875931 320.493958 130.00264 320.320465 132.022552 L 320.300476 132.459534 C 320.309326 133.344009 320.488434 133.919235 320.56485 134.267227 L 320.644257 134.604202 L 320.647308 134.625397 L 321.453766 134.53717 L 320.643799 134.538406 L 320.646942 134.625397 L 321.453369 134.53717 L 320.643433 134.538406 L 323.531433 134.535492 L 320.643341 134.466873 L 320.643433 134.538406 L 323.531433 134.535492 L 320.643341 134.466873 C 320.646423 134.505844 320.602722 135.064987 320.865967 135.743439 L 323.885925 134.57106 L 320.646423 134.502426 L 320.640503 135.000671 C 320.64978 139.335312 321.632782 143.27211 322.534637 146.966171 C 323.690948 151.679443 324.812073 156.387482 325.827667 161.100571 C 326.064209 161.965149 325.882416 163.645004 326.313324 165.91478 C 326.577148 167.155014 326.662445 168.484314 326.66391 169.927948 C 326.665131 171.124527 326.604736 172.400589 326.57431 173.75383 C 326.422089 179.612473 325.062683 185.091354 322.303192 190.236481 C 319.884644 194.740402 316.517822 198.58815 312.5448 201.949631 C 307.740601 206.013718 302.403992 209.198044 296.487457 211.256668 C 293.160645 212.41539 289.981445 213.627274 286.844269 214.516068 C 284.862885 215.092316 282.400696 215.301727 279.667999 215.885208 C 276.076782 216.67836 272.152496 216.580902 267.901093 216.603333 L 267.923401 216.603317 L 267.782684 216.603455 C 265.943359 216.606094 264.049622 216.326157 262.026428 215.921494 C 260.270355 215.571823 258.564941 216.711105 258.215637 218.466064 C 257.866333 220.220627 259.005249 221.92601 260.761322 222.275726 C 262.966522 222.713455 265.293518 223.083374 267.789581 223.081604 L 267.930298 223.081451 L 267.950745 223.081436 C 272.022064 223.042511 276.420807 223.216293 281.049133 222.214783 C 283.206146 221.731049 285.801514 221.533188 288.614227 220.748016 C 292.118225 219.751419 295.411652 218.487991 298.614777 217.375931 C 305.356537 215.0327 311.394836 211.410385 316.730103 206.895569 C 321.183502 203.129562 325.131592 198.665375 328.011169 193.301468 C 331.272888 187.235779 332.884277 180.68187 333.051483 173.907318 C 333.078583 172.653961 333.142334 171.327972 333.1409 169.921417 C 333.139221 168.240189 333.047363 166.444061 332.64975 164.569229 C 332.413208 163.695969 332.597992 162.011917 332.161041 159.73909 C 331.126465 154.931061 329.98938 150.164017 328.826599 145.421616 C 327.914948 141.734436 327.115906 138.315338 327.117493 134.994141 L 327.123566 134.639297 L 326.904022 133.398285 L 323.936218 134.55098 L 327.118469 134.441833 L 326.904022 133.398651 L 323.936218 134.551346 L 327.118469 134.4422 L 324.035706 134.547821 L 327.120148 134.621521 L 327.118469 134.4422 L 324.035706 134.547821 L 327.120148 134.621521 L 327.120056 134.532623 C 327.111206 133.650024 326.933563 133.068756 326.855682 132.717728 L 326.776276 132.378845 L 326.773224 132.360336 L 325.914581 132.45462 L 326.776733 132.453751 L 326.773621 132.360336 L 325.914948 132.45462 L 326.7771 132.453751 L 324.727448 132.455811 L 326.7742 132.591095 L 326.7771 132.453751 L 324.727448 132.455811 L 326.7742 132.591095 L 326.7742 132.583511 C 326.939819 130.621429 327.135803 128.752411 327.496124 127.028885 C 328.001343 124.607574 328.886536 122.299744 330.119446 120.048706 C 330.758728 118.84848 331.898071 117.616302 333.183746 115.927353 C 333.693787 115.251968 334.11261 114.932632 334.547455 114.716904 C 334.985321 114.506897 335.507263 114.376602 336.320221 114.37236 L 336.492767 114.374496 L 337.525543 114.382874 L 338.975952 114.377258 C 340.805847 114.373199 342.235931 114.468964 343.609375 115.014587 C 344.713715 115.452332 345.966461 115.251343 346.878174 114.489639 C 347.789886 113.728317 348.211243 112.53244 347.978943 111.367859 C 347.409576 108.349548 345.782654 105.920898 343.80246 104.275757 C 342.718048 103.350006 341.641663 102.488159 340.611053 101.638031 L 338.551025 104.137329 L 341.723236 103.483032 C 341.537354 102.586639 341.36554 101.786682 341.21759 101.016968 C 341.00769 99.93634 340.837341 98.680908 340.513245 97.298187 C 339.528442 93.119965 336.681885 90.33551 333.899414 88.429352 C 329.543549 85.411438 324.691223 84.132324 319.872009 84.149719 C 317.698639 84.151886 315.524353 84.404114 313.364288 84.846649 C 310.802521 85.370148 308.190674 86.477081 306.00528 88.44873 C 302.468689 91.640289 299.747162 95.429901 297.746094 99.726868 C 295.501892 104.53476 293.809723 109.426483 292.151886 114.202759 C 290.022888 120.344467 287.760559 126.292252 284.788086 131.823425 C 283.722504 133.811035 282.572815 135.685547 281.27597 137.178513 C 278.37207 140.528351 275.190887 143.184601 271.30011 144.804642 C 268.47345 145.984802 265.642975 146.760895 262.944611 146.851776 C 260.674835 146.929749 258.475098 147.045425 256.350891 147.047195 C 254.320129 147.04924 252.363419 146.949478 250.468185 146.642624 C 247.38031 146.147919 244.458954 146.075211 241.794998 145.792236 C 239.536255 145.559998 237.448227 145.408142 235.624008 145.010056 C 232.173462 144.265274 228.697739 143.316589 225.150543 142.380402 C 219.412354 140.865784 213.876144 138.922333 208.636612 136.334686 C 205.370575 134.722229 202.17717 133.107803 199.21431 131.289948 C 196.26738 129.484222 193.51976 127.635208 191.26506 125.413406 L 190.864471 125.078995 L 189.704132 124.258896 L 188.76062 123.486557 C 187.631958 122.563492 186.023346 122.508774 184.834778 123.352448 C 183.646225 124.196106 183.166946 125.733276 183.666565 127.103027 C 184.475357 129.324402 185.456482 131.38176 186.635345 133.314133 C 189.289032 137.671417 192.454987 141.695694 196.357361 145.207367 C 198.893555 147.487549 201.793228 149.687927 205.517715 150.861816 L 205.674408 150.935028 L 206.008636 151.491577 L 208.916016 150.060898 L 205.813705 150.99733 L 206.275635 152.526352 L 209.37796 151.58992 L 206.236084 150.800919 C 206.050308 151.541092 205.894302 152.162842 205.719482 152.856445 L 208.862869 153.643158 L 206.328461 151.625183 C 205.941544 152.11171 205.502136 152.662949 205.009445 153.280457 L 207.543884 155.29921 L 206.691406 152.173767 C 205.964142 152.376114 205.440796 152.594147 205.065994 152.714096 L 204.651886 152.833282 L 204.566391 152.848511 L 204.572861 152.901474 L 204.572815 152.849289 L 204.566391 152.848511 L 204.572861 152.901474 L 204.572815 152.849289 L 204.564865 152.848892 L 204.484161 156.087265 L 204.609131 152.850372 L 203.986069 152.839996 C 201.2388 152.851456 198.882523 153.42923 196.812393 153.783951 C 195.074402 154.097412 193.672165 154.623901 192.432404 154.961105 C 191.188126 155.306625 190.26535 156.364899 190.09111 157.643021 C 189.915344 158.921143 190.520782 160.188965 191.626862 160.855942 C 194.730499 162.726578 197.675522 164.503159 200.320358 166.098099 L 201.994232 163.324173 L 199.086868 164.754059 C 199.58461 165.764816 199.896591 166.399658 200.211975 167.042084 L 203.119354 165.611816 L 199.879929 165.632065 L 199.88356 166.224518 L 199.906235 166.593704 L 199.930389 166.90239 L 199.832794 167.287994 C 199.779144 167.349335 199.584869 167.537582 198.982391 167.680054 C 197.828064 167.949432 196.869766 168.288574 196.02562 168.533798 C 195.027939 168.827271 194.225189 169.591476 193.883057 170.572784 C 193.539413 171.554092 193.692215 172.651413 194.289276 173.502365 L 194.639343 174.000992 L 195.540192 174.865295 C 196.921906 175.735901 198.021301 177.28093 199.291855 179.348236 C 203.916199 186.776581 209.616135 194.252625 216.598923 200.237976 C 223.569214 206.215012 231.902573 210.716812 241.589935 211.880203 C 243.92627 212.160065 246.273819 212.309402 248.608368 212.307053 C 260.796692 212.336014 272.895203 208.034927 280.689758 197.063354 C 281.53479 195.836792 282.255768 194.242249 283.205719 192.002457 C 284.583221 188.697311 286.169922 184.283142 287.438934 179.915436 C 288.698425 175.520126 289.671326 171.307022 289.688721 167.899612 L 289.690094 167.775146 C 289.688293 165.986496 288.23642 164.539063 286.44928 164.540863 C 284.660278 164.542664 283.213196 165.993393 283.214996 167.781677 L 283.213837 167.781677 Z"/>
            <path id="path18" fill="#ffffff" stroke="none" d="M 316.104828 103.339752 C 316.416046 107.689972 318.698914 109.73468 322.735748 110.025345 C 324.386658 109.63327 326.110138 109.149567 327.329803 107.64566 C 328.56192 106.12558 328.759491 104.348816 328.580597 102.522125 C 328.374573 100.405334 325.700287 97.753021 323.583801 97.525177 C 322.024261 97.357269 320.456665 97.492401 319.084656 98.326416 C 317.17157 99.489777 316.474396 101.426636 316.104828 103.339752 Z"/>
            <path id="path19" fill="#ffffff" stroke="none" d="M 315.026917 72.803406 C 316.978638 71.324554 318.641632 71.658051 320.379303 72.897522 C 322.015289 74.93045 322.748413 77.541565 323.720642 80.145966 C 325.314362 79.691528 326.837341 79.207642 328.386902 78.835358 C 329.253387 78.626801 330.173645 78.471863 331.053284 78.530792 C 332.049805 78.598206 332.890198 79.129272 333.311859 80.122284 C 333.560638 80.710693 333.78595 81.31012 334.025269 81.9151 C 333.870819 82.572784 333.710358 83.256165 333.514862 84.092834 C 332.762634 84.695068 331.914032 85.375031 331.166321 85.97464 C 328.095154 84.783783 325.20282 83.867767 322.083344 83.541779 C 320.068268 83.330811 318.063812 83.14444 316.061554 83.256531 C 312.716339 83.44342 309.424103 83.976715 306.371185 85.50705 C 304.407623 86.490723 302.048309 85.167877 301.846649 82.919434 C 301.683655 81.084381 302.157928 79.459473 303.93158 78.477478 L 304.777161 77.808197 C 307.490631 77.292084 309.64209 79.175415 312.271057 79.312744 C 312.712921 78.158447 313.111633 77.02121 313.580383 75.913055 C 314.026093 74.860535 314.542206 73.838989 315.026917 72.803406 Z"/>
        </g>
        <g id="g2">
            <path id="path20" fill="#ffffff" stroke="none" d="M 0.094922 365.908264 L 0.088594 359.626465 L 6.929904 359.619568 L 6.879096 309.183655 L 0.037786 309.190552 L 0.031411 302.862579 L 48.802807 302.813446 L 48.82003 319.909912 L 41.38364 319.917419 L 41.372795 309.148895 L 15.211318 309.175262 L 15.231512 329.221344 L 36.644474 329.199768 L 36.651447 336.122803 L 15.238486 336.144379 L 15.262126 359.611176 L 24.156891 359.602234 L 24.163219 365.884003 L 0.094922 365.908264 Z"/>
            <path id="path21" fill="#ffffff" stroke="none" d="M 71.077614 359.554962 L 71.083939 365.836731 L 49.625202 365.858368 L 49.618874 359.576569 L 55.5182 359.570618 L 73.374954 309.116669 L 65.683586 309.12439 L 65.677208 302.796448 L 94.402473 302.767517 L 94.408844 309.095459 L 86.625931 309.103302 L 103.818977 359.521973 L 109.842766 359.5159 L 109.849098 365.797699 L 87.454819 365.820251 L 87.448486 359.538452 L 94.969994 359.530884 L 89.997154 344.532196 L 68.453308 344.553894 L 63.471733 359.562622 L 71.077614 359.554962 Z M 70.369537 338.269806 L 88.407608 338.251617 L 80.824966 316.244415 C 80.79232 316.133179 80.73954 315.946777 80.647728 315.688843 C 79.991745 313.809326 79.564819 312.115692 79.360519 310.604919 C 79.191559 311.488068 79.002518 312.351532 78.78772 313.192383 C 78.579369 314.033142 78.272842 315.06665 77.875343 316.290131 L 70.369537 338.269806 Z"/>
            <path id="path22" fill="#ffffff" stroke="none" d="M 135.094406 359.490448 L 141.974686 359.483521 L 141.981018 365.76532 L 119.926834 365.787537 L 119.920502 359.505737 L 126.76181 359.498871 L 126.710999 309.062927 L 119.869698 309.069824 L 119.863319 302.741852 L 146.83551 302.714691 C 154.069122 302.707397 159.414001 303.9841 162.869781 306.547424 C 166.319138 309.107758 168.043304 313.079376 168.048721 318.465363 C 168.052231 321.94162 167.211517 324.842957 165.519791 327.166687 C 163.82164 329.490112 161.083191 331.494476 157.291611 333.179138 C 160.399185 334.08847 162.545975 335.482605 163.731598 337.361633 C 164.917206 339.240631 165.509155 342.516937 165.51387 347.189789 L 165.52623 359.459442 L 172.452271 359.452454 L 172.458603 365.734253 L 157.239304 365.749573 L 157.221817 348.394714 C 157.216736 343.352264 156.363342 340.040253 154.64801 338.462585 C 152.939499 336.881439 149.786255 336.093231 145.201553 336.097839 L 135.07048 336.108032 L 135.09404 359.490479 Z M 135.04361 309.054535 L 135.064484 329.784241 L 144.08371 329.775146 C 149.473083 329.769714 153.383194 328.938416 155.814423 327.284668 C 158.252472 325.627502 159.466064 322.990601 159.462433 319.373596 C 159.458664 315.638977 158.291931 312.984772 155.968292 311.404297 C 153.64502 309.823761 149.674271 309.039795 144.062469 309.045441 L 135.04361 309.054535 Z"/>
            <path id="path23" fill="#ffffff" stroke="none" d="M 200.098984 359.424988 L 206.940292 359.418091 L 206.946625 365.69986 L 185.232529 365.721741 L 185.226196 359.439972 L 192.322479 359.4328 L 192.271683 308.996887 L 185.175385 309.004028 L 185.169006 302.676056 L 205.470139 302.655609 L 221.630478 347.13327 L 238.126007 302.622711 L 257.230164 302.603485 L 257.236542 308.931427 L 250.140244 308.938599 L 250.191055 359.374512 L 257.287354 359.367371 L 257.293671 365.64917 L 235.579575 365.671021 L 235.573257 359.389252 L 242.414551 359.382355 L 242.365433 310.610931 L 223.735596 359.741272 L 218.777893 359.746277 L 200.049088 310.653564 L 200.098221 359.424988 Z"/>
            <path id="path24" fill="#ffffff" stroke="none" d="M 270.753845 365.63559 L 270.747528 359.353821 L 277.582031 359.346924 L 277.531219 308.911011 L 270.696716 308.917877 L 270.690338 302.589905 L 319.454926 302.540771 L 319.472137 319.637268 L 312.035767 319.644745 L 312.024933 308.876251 L 285.863434 308.902588 L 285.883636 328.9487 L 307.767578 328.926636 L 307.774567 335.849701 L 285.890625 335.871735 L 285.914246 359.338531 L 312.075714 359.312164 L 312.063293 346.957428 L 319.499664 346.949951 L 319.518433 365.586487 L 270.753845 365.63559 Z"/>
            <path id="path25" fill="#ffffff" stroke="none" d="M 348.309631 359.275665 L 355.196716 359.268738 L 355.203033 365.550537 L 333.142426 365.572754 L 333.136108 359.290955 L 339.977417 359.284058 L 339.926605 308.848145 L 333.085297 308.855042 L 333.078918 302.527069 L 360.051086 302.499878 C 367.291138 302.492615 372.636017 303.769318 376.085388 306.332642 C 379.534698 308.892975 381.265289 312.864563 381.270721 318.250549 C 381.274231 321.726807 380.426727 324.628143 378.735382 326.951904 C 377.037231 329.275299 374.298767 331.279694 370.513611 332.964325 C 373.621216 333.873657 375.761169 335.267822 376.947174 337.146851 C 378.132782 339.025848 378.724762 342.302124 378.729462 346.975006 L 378.741821 359.244659 L 385.667877 359.237671 L 385.674194 365.51947 L 370.461304 365.53479 L 370.443817 348.179932 C 370.438751 343.137482 369.578522 339.82547 367.870026 338.247772 C 366.154694 336.666656 363.008301 335.878418 358.416779 335.883057 L 348.285675 335.89325 L 348.309235 359.275665 Z M 348.25882 308.839752 L 348.279694 329.569458 L 357.29895 329.560364 C 362.688293 329.554932 366.598419 328.723633 369.029633 327.069855 C 371.467651 325.41272 372.681305 322.775818 372.677643 319.158813 C 372.673889 315.424194 371.507141 312.769989 369.183472 311.189514 C 366.860229 309.608978 362.895905 308.825012 357.277649 308.830658 L 348.25882 308.839752 Z"/>
            <path id="path26" fill="#ffffff" stroke="none" d="M 410.115051 358.657318 L 410.121948 365.495209 L 403.025635 365.50235 L 403.003845 343.873383 L 410.100159 343.866241 C 411.328156 348.76712 413.562103 352.590698 416.796021 355.337708 C 420.036316 358.084747 423.902893 359.454102 428.409302 359.449585 C 431.797058 359.446167 434.641235 358.390472 436.928223 356.278717 C 439.22168 354.166992 440.3638 351.546417 440.360626 348.410645 C 440.35788 345.673584 439.433319 343.460632 437.580963 341.765076 C 435.721741 340.072876 432.633331 338.643707 428.302429 337.480591 L 421.714722 335.734558 C 415.447479 334.030518 410.879791 331.791748 408.032104 329.015198 C 405.177643 326.241638 403.748169 322.645782 403.743713 318.227936 C 403.738586 313.126404 405.474274 309.023804 408.95047 305.913635 C 412.420166 302.803497 417.02298 301.245514 422.746033 301.239746 C 426.225342 301.236237 429.254272 301.795746 431.832397 302.917877 C 434.410553 304.043365 436.517914 305.715637 438.142334 307.934296 L 438.13678 302.420868 L 444.252106 302.414703 L 444.270386 320.537903 L 438.155029 320.544067 C 437.071777 316.614532 435.152588 313.594513 432.396759 311.488251 C 429.647736 309.381561 426.245697 308.332153 422.203888 308.336243 C 418.979584 308.339478 416.351196 309.205444 414.318787 310.931061 C 412.279907 312.656281 411.268311 314.887787 411.271057 317.62149 C 411.273621 320.15918 412.099579 322.153137 413.755768 323.603424 C 415.405487 325.053711 418.500214 326.348938 423.033844 327.4823 L 428.117035 328.805054 C 435.384949 330.59317 440.645874 333.001099 443.89975 336.032593 C 447.153229 339.064148 448.779388 343.03241 448.784332 347.931152 C 448.789795 353.346619 446.825592 357.828522 442.89856 361.380646 C 438.971497 364.932709 433.983032 366.710144 427.945984 366.716217 C 424.52533 366.719666 421.182648 365.990601 417.917511 364.52533 C 414.652344 363.060028 412.053711 361.104889 410.115051 358.657318 Z"/>
            <path id="path27" fill="#ffffff" stroke="none" d="M 525.107361 345.503479 C 523.49231 352.172791 520.286072 357.362579 515.482605 361.072571 C 510.685669 364.782562 504.768524 366.639557 497.731232 366.646637 C 488.411255 366.656036 480.73645 363.58017 474.706451 357.415283 C 468.670044 351.253845 465.653473 343.428192 465.643921 333.937927 C 465.63446 324.562347 468.609161 316.760193 474.574097 310.527618 C 480.539001 304.29541 488.031311 301.174377 497.07019 301.165283 C 501.085938 301.161255 504.722839 301.762512 507.987701 302.972412 C 511.252563 304.178955 513.942261 305.93573 516.050598 308.242432 L 516.044617 302.343109 L 522.885986 302.336243 L 522.905701 321.868988 L 516.411194 321.875519 C 514.980896 317.403503 512.70166 314.056976 509.579468 311.839874 C 506.457336 309.619324 502.460175 308.511505 497.587585 308.516418 C 490.491272 308.52356 484.82312 310.838104 480.583191 315.459595 C 476.343231 320.078094 474.223724 326.234528 474.231476 333.929291 C 474.239044 341.453827 476.456024 347.563538 480.875275 352.258423 C 485.30127 356.95636 491.026276 359.302124 498.063965 359.295044 C 502.766296 359.290283 506.709015 358.148407 509.878815 355.862488 C 513.055054 353.579956 515.537048 350.130707 517.330872 345.511322 L 525.107361 345.503479 Z"/>
            <path id="path28" fill="#ffffff" stroke="none" d="M 539.731934 365.364624 L 539.725647 359.082855 L 546.566956 359.075958 L 546.516113 308.640015 L 539.674805 308.646912 L 539.668457 302.318939 L 588.43988 302.269806 L 588.457092 319.366302 L 581.020691 319.373779 L 581.009827 308.605286 L 554.848328 308.631622 L 554.86853 328.677734 L 576.752502 328.65567 L 576.759521 335.578735 L 554.875549 335.600769 L 554.89917 359.067566 L 581.060669 359.041199 L 581.048218 346.686462 L 588.484619 346.678955 L 588.503357 365.315491 L 539.731934 365.364624 Z"/>
            <path id="path29" fill="#ffffff" stroke="none" d="M 617.470459 359.004517 L 624.350708 358.997589 L 624.357056 365.279388 L 602.597229 365.3013 L 602.590881 359.019531 L 609.647827 359.012421 L 609.596985 308.576477 L 602.5401 308.583588 L 602.533691 302.255615 L 618.263367 302.239777 L 644.942017 348.119446 L 644.902161 308.540497 L 637.976135 308.547485 L 637.969727 302.219543 L 659.768616 302.197601 L 659.774963 308.525513 L 652.67865 308.532654 L 652.737061 366.489777 L 646.451843 366.496094 L 617.427917 316.772919 L 617.470459 359.004517 Z"/>
            <path id="path30" fill="#ffffff" stroke="none" d="M 700.977661 358.92041 L 707.903687 358.913422 L 707.910034 365.195221 L 685.771118 365.217529 L 685.764771 358.93573 L 692.684387 358.928772 L 692.633606 308.492828 L 680.625366 308.504944 L 680.636719 319.787201 L 673.540405 319.794342 L 673.522705 302.184479 L 720.031067 302.137634 L 720.048767 319.747498 L 712.867432 319.75473 L 712.856018 308.472473 L 700.926453 308.484467 L 700.977295 358.92041 Z"/>
        </g>
    </g>
</svg>
